<svg width="37" height="37" viewBox="0 0 37 37" fill="none" xmlns="http://www.w3.org/2000/svg">
<path fill-rule="evenodd" clip-rule="evenodd" d="M18.5 27.75C23.6086 27.75 27.75 23.6086 27.75 18.5C27.75 13.3914 23.6086 9.25 18.5 9.25C13.3914 9.25 9.25 13.3914 9.25 18.5C9.25 23.6086 13.3914 27.75 18.5 27.75ZM18.5 24.6667C21.9057 24.6667 24.6667 21.9057 24.6667 18.5C24.6667 15.0942 21.9057 12.3333 18.5 12.3333C15.0942 12.3333 12.3333 15.0942 12.3333 18.5C12.3333 21.9057 15.0942 24.6667 18.5 24.6667Z" fill="white"/>
<path d="M27.75 7.70831C26.8986 7.70831 26.2084 8.39855 26.2084 9.24998C26.2084 10.1014 26.8986 10.7916 27.75 10.7916C28.6015 10.7916 29.2917 10.1014 29.2917 9.24998C29.2917 8.39855 28.6015 7.70831 27.75 7.70831Z" fill="white"/>
<path fill-rule="evenodd" clip-rule="evenodd" d="M2.54981 6.59228C1.54163 8.57096 1.54163 11.1612 1.54163 16.3417V20.6584C1.54163 25.8388 1.54163 28.4291 2.54981 30.4077C3.43664 32.1482 4.85171 33.5633 6.59222 34.4501C8.5709 35.4584 11.1611 35.4584 16.3416 35.4584H20.6583C25.8388 35.4584 28.4291 35.4584 30.4076 34.4501C32.1482 33.5633 33.5633 32.1482 34.45 30.4077C35.4583 28.4291 35.4583 25.8388 35.4583 20.6584V16.3417C35.4583 11.1612 35.4583 8.57096 34.45 6.59228C33.5633 4.85177 32.1482 3.4367 30.4076 2.54988C28.4291 1.54169 25.8388 1.54169 20.6583 1.54169H16.3416C11.1611 1.54169 8.5709 1.54169 6.59222 2.54988C4.85171 3.4367 3.43664 4.85177 2.54981 6.59228ZM20.6583 4.62502H16.3416C13.7005 4.62502 11.9051 4.62743 10.5173 4.7408C9.16554 4.85124 8.47425 5.05143 7.99202 5.29714C6.83169 5.88837 5.88831 6.83175 5.29708 7.99208C5.05137 8.47432 4.85118 9.1656 4.74074 10.5174C4.62736 11.9052 4.62496 13.7006 4.62496 16.3417V20.6584C4.62496 23.2995 4.62736 25.0948 4.74074 26.4826C4.85118 27.8345 5.05137 28.5258 5.29708 29.008C5.88831 30.1683 6.83169 31.1116 7.99202 31.7029C8.47425 31.9486 9.16554 32.1489 10.5173 32.2592C11.9051 32.3726 13.7005 32.375 16.3416 32.375H20.6583C23.2995 32.375 25.0947 32.3726 26.4826 32.2592C27.8344 32.1489 28.5257 31.9486 29.008 31.7029C30.1682 31.1116 31.1116 30.1683 31.7028 29.008C31.9485 28.5258 32.1488 27.8345 32.2592 26.4826C32.3725 25.0948 32.375 23.2995 32.375 20.6584V16.3417C32.375 13.7006 32.3725 11.9052 32.2592 10.5174C32.1488 9.1656 31.9485 8.47432 31.7028 7.99208C31.1116 6.83175 30.1682 5.88837 29.008 5.29714C28.5257 5.05143 27.8344 4.85124 26.4826 4.7408C25.0947 4.62743 23.2995 4.62502 20.6583 4.62502Z" fill="white"/>
</svg>
