<svg width="24" height="24" viewBox="0 0 24 24" fill="none" xmlns="http://www.w3.org/2000/svg">
<path d="M20.34 17.52C21.708 15.453 22.2596 12.9516 21.8879 10.501C21.5161 8.05035 20.2474 5.82512 18.3279 4.25688C16.4084 2.68864 13.9749 1.88917 11.4993 2.01352C9.02376 2.13786 6.68261 3.17717 4.92992 4.92986C3.17723 6.68255 2.13792 9.0237 2.01358 11.4993C1.88923 13.9748 2.6887 16.4083 4.25694 18.3278C5.82518 20.2473 8.05041 21.516 10.501 21.8878C12.9517 22.2596 15.4531 21.708 17.52 20.34" stroke="black" stroke-opacity="0.5" stroke-width="2" stroke-linecap="round" stroke-linejoin="round"/>
<path d="M19 21C20.1046 21 21 20.1046 21 19C21 17.8954 20.1046 17 19 17C17.8954 17 17 17.8954 17 19C17 20.1046 17.8954 21 19 21Z" stroke="black" stroke-opacity="0.5" stroke-width="2" stroke-linecap="round" stroke-linejoin="round"/>
<path d="M13.4102 13.41L17.5902 17.59" stroke="black" stroke-opacity="0.5" stroke-width="2" stroke-linecap="round" stroke-linejoin="round"/>
<path d="M12 14C13.1046 14 14 13.1046 14 12C14 10.8954 13.1046 10 12 10C10.8954 10 10 10.8954 10 12C10 13.1046 10.8954 14 12 14Z" stroke="black" stroke-opacity="0.5" stroke-width="2" stroke-linecap="round" stroke-linejoin="round"/>
</svg>
